<?xml version="1.0" encoding="UTF-8"?>
<svg id="Capa_1" xmlns="http://www.w3.org/2000/svg" viewBox="0 0 792 486.38">
  <defs>
    <style>
      .cls-1 {
        fill: none;
      }

      .cls-2, .cls-3 {
        fill: #2f7da2;
      }

      .cls-3 {
        stroke: #2f7da2;
        stroke-miterlimit: 10;
      }

      .cls-4 {
        fill: #f9193d;
      }
    </style>
  </defs>
  <g>
    <path class="cls-4" d="M105.03,444.77v-102.16c0-1.37.91-2.13,2.28-2.13h29.8c23.56,0,35.73,13.83,35.73,33.45s-12.16,33.45-35.73,33.45h-17.79v37.4c0,1.37-.76,2.13-2.13,2.13h-9.88c-1.37,0-2.28-.76-2.28-2.13ZM136.19,394.75c12.62,0,22.8-5.32,22.8-20.83s-10.19-20.83-22.8-20.83h-16.87v41.65h16.87Z"/>
    <path class="cls-4" d="M190.61,409.34c0-21.89,15.35-38.77,37.7-38.77s35.12,16.88,35.12,35.27c0,6.08-1.22,8.82-6.23,8.82h-53.21c1.67,13.38,11.25,22.8,27.67,22.8,8.21,0,14.44-2.28,20.22-6.39.91-.61,1.82-.61,2.43.15l3.34,4.71c1.06,1.22.61,2.13-.61,3.19-6.54,6.39-16.12,9.58-26.6,9.58-24.32,0-39.83-17.48-39.83-39.37ZM251.27,404.48c-.76-13.38-9.58-22.2-22.96-22.2s-22.8,8.36-24.32,22.2h47.28Z"/>
    <path class="cls-4" d="M294.6,430.17v-46.67h-9.58c-1.37,0-2.28-.91-2.28-2.28v-6.69c0-1.37.91-2.13,2.28-2.13h9.58v-17.63c0-1.37.76-2.13,2.13-2.13h9.58c1.37,0,1.98.76,1.98,2.13v17.63h12.47c1.37,0,2.13.76,2.13,2.13v6.69c0,1.37-.76,2.28-2.13,2.28h-12.47v44.85c0,5.47,2.43,7.6,6.84,7.6,1.22,0,3.19-.15,4.71-.3,2.13-.15,2.89.61,2.89,2.13v6.39c0,2.89-6.23,3.65-10.49,3.65-10.64,0-17.63-5.32-17.63-17.63Z"/>
    <path class="cls-4" d="M345.98,394.14c0-30.86,23.11-54.88,54.27-54.88,14.9,0,26.91,5.47,36.33,14.14,1.06,1.06,1.37,2.13.3,3.5l-6.08,6.54c-.91,1.06-1.98,1.06-3.19,0-7.45-6.38-16.27-10.34-27.21-10.34-22.8,0-39.98,17.48-39.98,41.05s17.18,40.89,39.98,40.89c10.95,0,19.76-3.95,27.21-10.34,1.22-1.22,2.28-1.06,3.19-.15l6.08,6.69c1.22,1.22.76,2.28-.3,3.34-9.42,8.82-21.43,14.29-36.33,14.29-31.17,0-54.27-23.87-54.27-54.73Z"/>
    <path class="cls-4" d="M456.19,409.65c0-22.2,14.9-39.07,36.33-39.07,12.77,0,22.2,5.93,27.52,15.35l.3-11.4c0-1.37.61-2.13,1.98-2.13h8.82c1.37,0,2.13.76,2.13,2.13v70.23c0,1.37-.76,2.13-2.13,2.13h-8.82c-1.37,0-1.98-.76-1.98-2.13l-.3-11.1c-5.47,9.27-14.75,15.05-27.52,15.05-21.43,0-36.33-16.72-36.33-39.07ZM494.96,436.1c14.59,0,24.78-10.49,24.78-26.3s-10.19-26.6-24.78-26.6-25.39,10.79-25.39,26.45,10.64,26.45,25.39,26.45Z"/>
    <path class="cls-4" d="M562.45,444.77v-70.23c0-1.37.76-2.13,2.13-2.13h8.97c1.52,0,2.13.61,2.13,2.28l.46,8.82c2.74-7.3,7.75-12.92,16.88-12.92,3.19,0,5.47.61,6.84,1.52.91.76,1.22,1.37,1.22,2.74v7.6c0,1.67-1.06,1.98-2.74,1.52-1.98-.46-3.8-.76-5.47-.76-12.47,0-16.72,10.49-16.72,19.46v42.11c0,1.37-.61,2.13-1.98,2.13h-9.58c-1.37,0-2.13-.76-2.13-2.13Z"/>
    <path class="cls-4" d="M617.94,409.34c0-21.89,15.35-38.77,37.7-38.77s35.12,16.88,35.12,35.27c0,6.08-1.22,8.82-6.23,8.82h-53.21c1.67,13.38,11.25,22.8,27.67,22.8,8.21,0,14.44-2.28,20.22-6.39.91-.61,1.82-.61,2.43.15l3.34,4.71c1.06,1.22.61,2.13-.61,3.19-6.54,6.39-16.12,9.58-26.6,9.58-24.32,0-39.83-17.48-39.83-39.37ZM678.6,404.48c-.76-13.38-9.58-22.2-22.96-22.2s-22.8,8.36-24.32,22.2h47.28Z"/>
  </g>
  <g>
    <g>
      <path class="cls-2" d="M656.53,179.09c-.81,0-1.62.03-2.41.07.65-.06,1.29-.09,1.92-.08.17,0,.33,0,.49.01Z"/>
      <path class="cls-2" d="M653.5,142.25c-.03-6.1-2.14-13.48-7.86-19.47-8.07-8.45-19.74-7.95-27.03,1.17-5.5,6.88-6.89,14.9-5.73,23.39.99,7.2,3.99,13.5,9.87,18.07,8.79,6.83,21.2,4.44,26.88-5.12,2.93-4.93,3.84-10.38,3.87-18.04Z"/>
      <path class="cls-2" d="M661,144.03c-.12,4.25.8,8.75,2.88,12.87,6.58,13.02,21.38,16.7,31.25,5.95,9.04-9.85,9.98-27.23,2.05-38-7.6-10.32-20.47-10.79-28.74-.99-4.88,5.78-6.82,12.59-7.44,20.17Z"/>
      <path class="cls-2" d="M717.73,203.43c6.12.11,10.26-1.6,13.64-4.83,7.71-7.37,9.99-16.46,7.7-26.69-1.99-8.9-8.39-15.04-16.16-15.95-7.32-.86-14.99,3.77-19.04,11.65-3.75,7.29-4.28,14.97-2.09,22.78,2.34,8.36,8.61,12.95,15.96,13.04Z"/>
      <path class="cls-2" d="M614.78,181.76c-.34-8.65-3.14-15.69-8.54-20.73-7.85-7.34-18.74-6.76-25.57,1.35-9.09,10.8-6.56,29.82,5.02,37.83,10.27,7.11,23.95,2.44,27.51-9.52.86-2.88,1.56-5.72,1.58-8.93Z"/>
    </g>
    <path class="cls-2" d="M420.63,264.87c-4.63,14.38-25.59,35.59-58.99,35.59s-58.5-23.64-58.5-57.52c0-37.78,30.71-64.35,63.62-64.35,30.71,0,47.04,18.77,49.97,39.49.49,3.66-1.46,7.31-5.61,9.26-24.13,11.7-40.95,18.77-64.84,28.03,5.12,9.51,15.11,18.04,32.17,18.04,14.14,0,25.35-7.31,34.12-15.6,5.36-5.12,10.48-.49,8.04,7.07ZM338.49,223.93c0,5.12.97,11.7,2.19,15.6,11.21-3.9,22.67-8.04,33.39-13.16,4.14-1.95,8.29-3.41,6.09-10.72-3.9-13.65-14.62-21.69-25.59-18.77-10.24,2.44-16.09,12.68-16.09,27.06Z"/>
    <path class="cls-2" d="M446.47,169.08c0-14.62-11.46-14.14-11.46-21.45,0-3.66,2.19-5.61,8.04-8.29,9.75-4.63,31.93-11.94,35.83-11.94,4.63,0,6.34,2.93,6.34,8.29l-.24,33.39v96.77c0,22.18,11.94,16.09,11.94,27.79,0,5.61-4.14,6.82-11.21,6.82h-39.49c-7.31,0-11.7-1.71-11.7-7.07,0-11.46,12.19-5.36,12.19-27.54l-.24-96.77Z"/>
    <path class="cls-2" d="M523.73,169.08c0-14.62-11.46-14.14-11.46-21.45,0-3.66,2.19-5.61,8.04-8.29,9.75-4.63,31.93-11.94,35.83-11.94,4.63,0,6.34,2.93,6.34,8.29l-.24,33.39v96.77c0,22.18,11.94,16.09,11.94,27.79,0,5.61-4.14,6.82-11.21,6.82h-39.49c-7.31,0-11.7-1.71-11.7-7.07,0-11.46,12.19-5.36,12.19-27.54l-.24-96.77Z"/>
    <path class="cls-2" d="M728.14,278.04c-2.53.1-4.46-.75-6.03-2.43-2.09-2.22-3.55-5.89-4.94-10.74l-12.12-41.36-.31-1.05c-5.85-19.74-14.38-43.38-47.78-43.38-.14,0-.28,0-.43.01-.81,0-1.62.03-2.41.07h-.02c-22.28,1.16-36.99,15.68-43.07,26.2-3.9,6.83,1.95,10.48,6.58,7.56.2-.11.39-.22.58-.33,7.82-4.38,14.87-10.84,24.15-10.84,16.57,0,22.42,11.21,26.57,24.37-7.8-.73-11.7-1.22-16.09-1.22-37.04,0-57.27,17.31-57.27,40.46,0,15.55,10.5,27.92,27.08,32.83,5.01,1.47,10.56,2.27,16.54,2.27,10.62,0,22.13-2.57,32.39-8.83,3.89-2.35,7.59-5.24,11-8.72,2.81,7.97,7.03,12.94,12.45,15.47,3.03,1.42,6.45,2.08,10.21,2.08,11.95,0,27.31-8.53,27.31-17.79,0-2.92-1.71-4.87-4.39-4.63ZM655.99,281.2c-14.62,0-24.37-9.5-24.37-22.42,0-11.94,9.5-19.99,24.86-19.99,8.04,0,14.13,2.44,16.09,8.05,2.43,7.31,4.62,13.41,5.12,16.82,1.95,9.5-9.51,17.54-21.7,17.54Z"/>
    <g>
      <g>
        <path class="cls-2" d="M262.16,187.77c-11.97-12.88-26.99-18.97-44.63-16.67-7.83,1.01-14.75,4.97-19.85,10.5-7.34,7.97-10.9,19.21-7.91,29.66,1.01,3.54,3.4,6.79,5.6,9.86,3.68,5.14,8.21,9.72,11.51,15.08,2.94,4.79,4.15,9.98,3.78,14.9-.34,4.65-2.09,9.05-5.12,12.64-5.35,6.36-13.03,9.08-20.3,8.17-2.99-.38-5.91-1.36-8.57-2.96-2.66-1.6-5.06-3.82-7.02-6.64-3.64-5.25-6.01-11.38-9.04-17.07-1.56-2.94-2.97-6.06-5.06-8.59-2.43-2.95-5.18-2.18-5.75,1.61-.71,4.79-.78,9.67-1.13,14.49-4.86-1.14-9.39-5.86-11.5-11.55-.64-1.7-1.05-3.49-1.2-5.29-.3-3.75.13-7.18,1.2-10.31,1.66-4.84,4.87-8.95,9.39-12.4,2.83-2.15,6.13-3.68,9.23-5.49,4.03-2.34,8.3-4.36,12-7.13,2.27-1.69,4.22-4.31,5.34-6.93,2.06-4.88.16-8.55-5.03-10.69,1.6-5.78,4.42-10.88,8.49-15.2.37-.39.75-.78,1.14-1.15,10.87-10.57,24.28-14.47,39.06-14.23,14.7.23,28.28,4.49,40.78,12.18.34.21,5.29,2.79,7.77,5.03-9.99-11.59-24.7-20.29-44.15-24.97,21.11-8.89,32.58-25.54,32.21-47.39-.74-42.94-43.31-55.89-97.72-55.89h-83.29c-15.92,0-21.84,2.96-21.84,11.84,0,22.21,25.54,5.93,25.54,57.01v121.42c0,51.08-25.54,34.79-25.54,57,0,8.89,5.92,11.85,21.84,11.85h96.24c19.37,0,36.39-2.67,50.94-7.48.01,0,.02-.01.04-.01,4.98-1.65,9.67-3.55,14.07-5.69,14.07-7.28,26.2-18.77,34.49-33.91,12.22-22.3,10.06-48.29-6.01-65.6ZM183.17,68c4.02-2.03,8.04-4.06,11.68-6.74,2.68-1.97,5.04-4.25,6.95-6.99.09-.13.21-.25.43-.32.31,7.57-3.72,17.02-5.94,20.63-1.86-1.47-3.03-2.18-6.4-3.51-2.49-.98-5.69-1.53-9.05-1.88.8-.41,1.56-.81,2.33-1.19ZM137.17,77.97c.39-.43.79-.87,1.19-1.31,2.49-2.9,5.13-5.71,7.93-8.41,5.93-5.72,12.57-10.97,19.99-15.71,2.72-1.74,5.65-3.16,9.2-5.12-1.73,9.91-2.24,18.15,1.82,25.6,10.1-.1,20.55,6.4,25.14,14.62,3.79,6.8,5.66,13.06,8.34,20.38,3.19,8.7,5.28,8.58,8.22,14.22,1.14,2.17-.93,3.68-2.13,5.76-7.07,12.24-17.28,19.04-33.17,16.36-13.89-5.28-23.26-3.3-27.56-1.37-.08.04-.17.08-.25.12-.28.14-.55.28-.82.42-.02.01-.03.01-.04.02-20.46,10.6-22.33,29.99-19.09,44.12-23.64-27.48-32.33-72.3,1.23-109.7ZM221.74,207.62c-.66,3.92-3.98,6.56-7.9,6.45-.34,0-.68-.03-1.02-.08-4.29-.64-7.23-4.44-6.72-8.69.29-2.42,1.62-4.4,3.52-5.59,1.54-.96,3.46-1.4,5.48-1.12,4.41.62,7.38,4.66,6.64,9.03Z"/>
        <path class="cls-1" d="M219,122.24c-2.94-5.64-5.03-5.52-8.22-14.22-2.68-7.32-4.55-13.58-8.34-20.38-4.59-8.22-15.04-14.72-25.14-14.62-4.06-7.45-3.55-15.69-1.82-25.6-3.55,1.96-6.48,3.38-9.2,5.12-7.42,4.74-14.06,9.99-19.99,15.71-2.8,2.7-5.44,5.51-7.93,8.41-.4.44-.8.88-1.19,1.31-33.56,37.4-24.87,82.22-1.23,109.7-3.24-14.13-1.37-33.52,19.09-44.12.01-.01.02-.01.04-.02.25-.14.52-.28.82-.42.08-.04.17-.08.25-.12,4.3-1.93,13.67-3.91,27.56,1.37,15.89,2.68,26.1-4.12,33.17-16.36,1.2-2.08,3.27-3.59,2.13-5.76ZM184.03,104.7c.53-3.98,4.19-6.78,8.17-6.25,3.06.41,5.42,2.67,6.1,5.5h0s.02.06.04.19c.02.05.03.11.04.19.18.85.49,3.14.04,7.1-.08.76-.73,1.34-1.49,1.35-1.58.02-3.37.26-5.12.21-.16,0-.33,0-.5-.02-.35,0-.69-.05-1.04-.11-.18-.02-.35-.05-.52-.09-.08-.01-.15-.03-.22-.05-.2-.04-.39-.1-.58-.16-.39-.12-.77-.28-1.14-.48-.14-.08-.28-.16-.42-.25-.11-.08-.23-.15-.34-.24-2.15-1.49-3.39-4.12-3.03-6.89Z"/>
        <path class="cls-2" d="M167.15,225.58c-.81,3.05-3.05,4.94-6.09,5.39-2.53.38-5.14.13-7.55.16-1.87-1.43-3.57-2.4-4.84-3.76-3.99-4.28-2.52-10.14,3.02-12.04,4.67-1.6,8.98-.61,12.71,2.58,2.34,2,3.57,4.58,2.75,7.66Z"/>
        <path class="cls-1" d="M156.35,104.56h0"/>
        <g>
          <path class="cls-3" d="M201.48,128.11c-.01.29-.26.52-.55.5-.02,0-.38-.01-.97.04-1.85.16-5.92.96-8.32,4.71-.08.12-.19.2-.32.23-.14.03-.29.01-.41-.07-.25-.16-.32-.48-.17-.73,2.52-3.93,6.57-4.93,8.75-5.17.84-.09,1.41-.07,1.48-.07.29.02.52.27.51.56Z"/>
          <path class="cls-3" d="M202.15,125.05c-.07.14-.2.24-.34.27-.12.03-.25.02-.37-.04-.03-.02-1.35-.68-3.8-1.14-2.64-.5-6.6-.77-11.68.24-.28.06-.56-.13-.62-.41-.06-.29.13-.56.42-.63,4.69-.93,8.44-.82,11.15-.42,3.16.47,4.89,1.35,5.02,1.42.25.13.35.45.22.71Z"/>
        </g>
      </g>
      <g>
        <path class="cls-2" d="M198.43,111.43c-.08.76-.73,1.34-1.49,1.35-1.58.02-3.37.26-5.12.21-.17,0-.34,0-.5-.02-.19,0-.37-.03-.55-.06-.15-.01-.29-.03-.44-.05h-.05c-.18-.02-.35-.05-.52-.09-.08-.01-.15-.03-.22-.05-.2-.04-.39-.1-.58-.16-.39-.12-.77-.28-1.14-.48-.14-.08-.28-.16-.42-.25-.11-.08-.23-.15-.34-.24-2.15-1.49-3.39-4.12-3.03-6.89.53-3.98,4.19-6.78,8.17-6.25,3.06.41,5.42,2.67,6.1,5.5.02.06.03.13.05.19.02.05.03.11.04.19.18.85.49,3.14.04,7.1Z"/>
        <path class="cls-2" d="M198.35,104.14c-.02-.06-.03-.13-.05-.19h0s.02.06.04.19Z"/>
      </g>
    </g>
  </g>
</svg>