<svg id="Componente_1_1" data-name="Componente 1 – 1" xmlns="http://www.w3.org/2000/svg" width="262.702" height="155.3" viewBox="0 0 262.702 155.3">
  <g id="Grupo_56" data-name="Grupo 56" transform="translate(-182.298 -4365.585)">
    <path id="Trazado_143" data-name="Trazado 143" d="M203.059,4519.322v-38.931a.777.777,0,0,1,.869-.811h11.356c8.978,0,13.616,5.27,13.616,12.747s-4.634,12.747-13.616,12.747h-6.779v14.252a.734.734,0,0,1-.812.812h-3.765a.777.777,0,0,1-.869-.812Zm11.875-19.061c4.809,0,8.688-2.028,8.688-7.938s-3.883-7.938-8.688-7.938h-6.429v15.872h6.429Z" fill="#73a2ad"/>
    <path id="Trazado_144" data-name="Trazado 144" d="M235.672,4505.821c0-8.342,5.849-14.775,14.366-14.775s13.384,6.433,13.384,13.441c0,2.317-.465,3.361-2.374,3.361H240.771c.636,5.1,4.287,8.689,10.544,8.689a12.6,12.6,0,0,0,7.7-2.435.64.64,0,0,1,.926.057l1.273,1.795c.4.464.233.811-.232,1.215a14.325,14.325,0,0,1-10.137,3.651c-9.268,0-15.178-6.661-15.178-15Zm23.116-1.852c-.29-5.1-3.651-8.46-8.75-8.46s-8.688,3.186-9.267,8.46Z" fill="#73a2ad"/>
    <path id="Trazado_145" data-name="Trazado 145" d="M275.3,4513.759v-17.785h-3.651a.821.821,0,0,1-.869-.869v-2.55a.777.777,0,0,1,.869-.811H275.3v-6.719a.733.733,0,0,1,.812-.811h3.65c.522,0,.755.289.755.811v6.719h4.752a.733.733,0,0,1,.812.811v2.55a.777.777,0,0,1-.812.869h-4.752v17.091c0,2.084.926,2.9,2.606,2.9.465,0,1.216-.057,1.8-.114.812-.057,1.1.232,1.1.812v2.435c0,1.1-2.374,1.391-4,1.391-4.055,0-6.718-2.028-6.718-6.719Z" fill="#73a2ad"/>
    <path id="Trazado_146" data-name="Trazado 146" d="M294.88,4500.028c0-11.76,8.806-20.913,20.681-20.913A19.87,19.87,0,0,1,329.4,4484.5a.883.883,0,0,1,.115,1.334l-2.317,2.492c-.347.4-.755.4-1.216,0a15.446,15.446,0,0,0-10.369-3.94c-8.689,0-15.236,6.661-15.236,15.643s6.547,15.582,15.236,15.582a15.42,15.42,0,0,0,10.369-3.94.761.761,0,0,1,1.216-.057l2.317,2.549c.464.465.289.869-.115,1.273a19.662,19.662,0,0,1-13.844,5.446c-11.878,0-20.681-9.1-20.681-20.857Z" fill="#73a2ad"/>
    <path id="Trazado_147" data-name="Trazado 147" d="M336.878,4505.939c0-8.46,5.678-14.889,13.845-14.889a11.467,11.467,0,0,1,10.487,5.85l.114-4.345c0-.522.233-.811.755-.811h3.361a.732.732,0,0,1,.811.811v26.763a.733.733,0,0,1-.811.812h-3.361c-.522,0-.755-.289-.755-.812l-.114-4.229a11.553,11.553,0,0,1-10.487,5.735c-8.167,0-13.845-6.372-13.845-14.889Zm14.774,10.079c5.56,0,9.444-4,9.444-10.022s-3.884-10.137-9.444-10.137-9.675,4.112-9.675,10.08,4.055,10.079,9.675,10.079Z" fill="#73a2ad"/>
    <path id="Trazado_148" data-name="Trazado 148" d="M377.371,4519.322v-26.763a.733.733,0,0,1,.812-.811H381.6c.579,0,.812.232.812.868l.175,3.362c1.044-2.782,2.954-4.924,6.433-4.924a4.819,4.819,0,0,1,2.606.579,1.134,1.134,0,0,1,.465,1.044v2.9c0,.636-.4.754-1.044.579a9.356,9.356,0,0,0-2.084-.29c-4.752,0-6.372,4-6.372,7.416v16.047c0,.522-.232.812-.754.812h-3.651a.734.734,0,0,1-.812-.812Z" fill="#73a2ad"/>
    <path id="Trazado_149" data-name="Trazado 149" d="M398.517,4505.821c0-8.342,5.85-14.775,14.367-14.775s13.383,6.433,13.383,13.441c0,2.317-.465,3.361-2.374,3.361H403.616c.636,5.1,4.287,8.689,10.544,8.689a12.6,12.6,0,0,0,7.706-2.435.64.64,0,0,1,.926.057l1.273,1.795c.4.464.232.811-.233,1.215a14.323,14.323,0,0,1-10.136,3.651c-9.268,0-15.179-6.661-15.179-15Zm23.116-1.852c-.289-5.1-3.65-8.46-8.749-8.46s-8.689,3.186-9.268,8.46Z" fill="#73a2ad"/>
  </g>
  <g id="Grupo_62" data-name="Grupo 62" transform="translate(-182.298 -4365.585)">
    <g id="Grupo_57" data-name="Grupo 57">
      <path id="Trazado_150" data-name="Trazado 150" d="M413.223,4418.078c-.309,0-.617.011-.918.027a6.607,6.607,0,0,1,.731-.031C413.1,4418.074,413.162,4418.074,413.223,4418.078Z" fill="#2f7da2"/>
      <path id="Trazado_151" data-name="Trazado 151" d="M412.068,4404.039a10.856,10.856,0,0,0-2.995-7.42,6.543,6.543,0,0,0-10.3.446,11.242,11.242,0,0,0-2.184,8.914,10.1,10.1,0,0,0,3.761,6.886,6.9,6.9,0,0,0,10.244-1.951C411.71,4409.035,412.057,4406.958,412.068,4404.039Z" fill="#73a2ad"/>
      <path id="Trazado_152" data-name="Trazado 152" d="M414.926,4404.717a10.316,10.316,0,0,0,1.1,4.905c2.507,4.961,8.147,6.364,11.909,2.267a12.04,12.04,0,0,0,.781-14.481c-2.9-3.932-7.8-4.112-10.952-.377A13.044,13.044,0,0,0,414.926,4404.717Z" fill="#73a2ad"/>
      <path id="Trazado_153" data-name="Trazado 153" d="M436.545,4427.353a6.8,6.8,0,0,0,5.2-1.84,10.168,10.168,0,0,0,2.934-10.171,7.4,7.4,0,0,0-6.158-6.078c-2.79-.328-5.713,1.436-7.256,4.439a11.572,11.572,0,0,0-.8,8.681,6.308,6.308,0,0,0,6.082,4.969Z" fill="#73a2ad"/>
      <path id="Trazado_154" data-name="Trazado 154" d="M397.313,4419.1a10.962,10.962,0,0,0-3.254-7.9,6.486,6.486,0,0,0-9.744.514c-3.464,4.116-2.5,11.364,1.913,14.416a6.769,6.769,0,0,0,10.483-3.628,11.867,11.867,0,0,0,.6-3.4Z" fill="#73a2ad"/>
    </g>
    <path id="Trazado_155" data-name="Trazado 155" d="M323.327,4450.767c-1.764,5.479-9.752,13.562-22.48,13.562s-22.293-9.009-22.293-21.919a24.374,24.374,0,0,1,24.244-24.523c11.7,0,17.926,7.153,19.043,15.049a3.4,3.4,0,0,1-2.138,3.529c-9.2,4.458-15.605,7.153-24.709,10.681,1.951,3.624,5.758,6.875,12.259,6.875,5.389,0,9.661-2.786,13-5.945,2.042-1.951,3.993-.187,3.063,2.694Zm-31.3-15.6a22.916,22.916,0,0,0,.835,5.945,124.536,124.536,0,0,0,12.724-5.015c1.578-.743,3.159-1.3,2.321-4.085-1.486-5.2-5.571-8.266-9.752-7.153-3.9.93-6.131,4.832-6.131,10.312Z" fill="#73a2ad"/>
    <path id="Trazado_156" data-name="Trazado 156" d="M333.174,4414.263c0-5.571-4.367-5.388-4.367-8.174,0-1.4.834-2.138,3.064-3.159,3.715-1.764,12.168-4.55,13.654-4.55,1.764,0,2.416,1.117,2.416,3.159l-.092,12.724v36.877c0,8.452,4.55,6.132,4.55,10.59,0,2.138-1.577,2.6-4.272,2.6H333.079c-2.786,0-4.459-.652-4.459-2.694,0-4.367,4.646-2.043,4.646-10.495l-.092-36.877Z" fill="#73a2ad"/>
    <path id="Trazado_157" data-name="Trazado 157" d="M362.616,4414.263c0-5.571-4.367-5.388-4.367-8.174,0-1.4.834-2.138,3.064-3.159,3.715-1.764,12.167-4.55,13.654-4.55,1.764,0,2.416,1.117,2.416,3.159l-.092,12.724v36.877c0,8.452,4.55,6.132,4.55,10.59,0,2.138-1.577,2.6-4.272,2.6H362.521c-2.786,0-4.459-.652-4.459-2.694,0-4.367,4.645-2.043,4.645-10.495l-.091-36.877Z" fill="#73a2ad"/>
    <path id="Trazado_158" data-name="Trazado 158" d="M440.512,4455.785a2.811,2.811,0,0,1-2.3-.926,10.169,10.169,0,0,1-1.883-4.092L431.713,4435l-.118-.4c-2.23-7.522-5.48-16.531-18.208-16.531-.054,0-.107,0-.164,0-.309,0-.617.011-.918.027H412.3a20.529,20.529,0,0,0-16.413,9.984c-1.486,2.6.743,3.993,2.507,2.881.077-.042.149-.084.221-.126,2.981-1.669,5.667-4.131,9.2-4.131,6.315,0,8.544,4.272,10.126,9.287-2.973-.278-4.459-.465-6.132-.465-14.115,0-21.824,6.6-21.824,15.418,0,5.926,4,10.64,10.319,12.511a22.393,22.393,0,0,0,6.3.865,23.756,23.756,0,0,0,12.344-3.365,21.212,21.212,0,0,0,4.191-3.323c1.071,3.037,2.679,4.931,4.745,5.9a9.059,9.059,0,0,0,3.891.793c4.553,0,10.407-3.25,10.407-6.779,0-1.113-.652-1.856-1.673-1.765Zm-27.495,1.205c-5.571,0-9.287-3.621-9.287-8.544,0-4.55,3.621-7.618,9.474-7.618,3.064,0,5.385.93,6.131,3.068a53.568,53.568,0,0,1,1.952,6.409C422.03,4453.926,417.663,4456.99,413.017,4456.99Z" fill="#73a2ad"/>
    <g id="Grupo_61" data-name="Grupo 61">
      <g id="Grupo_59" data-name="Grupo 59">
        <path id="Trazado_159" data-name="Trazado 159" d="M262.938,4421.386c-4.562-4.909-10.285-7.229-17.008-6.353a12.527,12.527,0,0,0-7.564,4,12.028,12.028,0,0,0-3.014,11.3,12.979,12.979,0,0,0,2.134,3.758c1.4,1.958,3.128,3.7,4.386,5.746a9.487,9.487,0,0,1,1.44,5.678,8.372,8.372,0,0,1-1.951,4.817,8.677,8.677,0,0,1-7.736,3.113,8.345,8.345,0,0,1-3.265-1.128,8.747,8.747,0,0,1-2.676-2.53,63.621,63.621,0,0,1-3.444-6.5,19.036,19.036,0,0,0-1.929-3.273c-.926-1.125-1.974-.831-2.191.613-.27,1.826-.3,3.685-.431,5.522a6.888,6.888,0,0,1-4.382-4.4,7.5,7.5,0,0,1-.457-2.016,9.632,9.632,0,0,1,.457-3.929,10.072,10.072,0,0,1,3.578-4.726,34.112,34.112,0,0,1,3.518-2.092,45.88,45.88,0,0,0,4.573-2.717,6.68,6.68,0,0,0,2.035-2.641c.785-1.859.061-3.258-1.917-4.073a13.628,13.628,0,0,1,3.235-5.793c.141-.148.286-.3.435-.438,4.142-4.028,9.252-5.514,14.884-5.423a30.139,30.139,0,0,1,15.541,4.642,19.046,19.046,0,0,1,2.961,1.917c-3.807-4.417-9.413-7.732-16.825-9.516,8.045-3.388,12.416-9.733,12.275-18.059-.282-16.363-16.505-21.3-37.239-21.3h-31.74c-6.067,0-8.323,1.128-8.323,4.512,0,8.463,9.733,2.259,9.733,21.725v46.27c0,19.465-9.733,13.258-9.733,21.721,0,3.388,2.256,4.516,8.323,4.516H227.3a61.859,61.859,0,0,0,19.412-2.85s.007,0,.015,0a43.709,43.709,0,0,0,5.362-2.168,31.449,31.449,0,0,0,13.143-12.923c4.657-8.5,3.834-18.4-2.29-25Zm-30.1-45.642a30.835,30.835,0,0,0,4.451-2.568,11.426,11.426,0,0,0,2.648-2.664.293.293,0,0,1,.164-.122,16.665,16.665,0,0,1-2.264,7.862,7.867,7.867,0,0,0-2.439-1.338,13.666,13.666,0,0,0-3.448-.716C232.254,4376.041,232.543,4375.889,232.837,4375.744Zm-17.53,3.8.454-.5q1.422-1.657,3.021-3.205a48.748,48.748,0,0,1,7.618-5.986c1.037-.663,2.153-1.205,3.506-1.951-.659,3.776-.853,6.916.694,9.755a11.494,11.494,0,0,1,9.58,5.571,50.4,50.4,0,0,1,3.178,7.767c1.216,3.315,2.012,3.269,3.133,5.419.434.827-.355,1.4-.812,2.195-2.694,4.664-6.585,7.255-12.64,6.234-5.294-2.012-8.864-1.257-10.5-.522-.03.015-.065.03-.1.046-.107.053-.21.106-.313.16l-.015.007c-7.8,4.04-8.509,11.429-7.275,16.813C205.83,4410.876,202.518,4393.8,215.307,4379.543Zm32.228,49.407a2.92,2.92,0,0,1-3.011,2.458,2.664,2.664,0,0,1-.388-.031,2.98,2.98,0,0,1-2.561-3.311,2.888,2.888,0,0,1,1.341-2.13,3.119,3.119,0,0,1,2.088-.427A2.961,2.961,0,0,1,247.535,4428.95Z" fill="#73a2ad"/>
        <path id="Trazado_160" data-name="Trazado 160" d="M246.491,4396.414c-1.121-2.15-1.917-2.1-3.133-5.419a50.4,50.4,0,0,0-3.178-7.767,11.494,11.494,0,0,0-9.58-5.571c-1.547-2.839-1.353-5.979-.694-9.755-1.353.746-2.469,1.288-3.506,1.951a48.748,48.748,0,0,0-7.618,5.986q-1.6,1.544-3.021,3.205l-.454.5c-12.789,14.253-9.477,31.333-.469,41.8-1.234-5.384-.522-12.773,7.275-16.813l.015-.007c.1-.054.2-.107.313-.16.03-.016.065-.031.1-.046,1.639-.735,5.209-1.49,10.5.522,6.055,1.021,9.946-1.57,12.64-6.234C246.136,4397.816,246.925,4397.241,246.491,4396.414Zm-13.327-6.684a2.77,2.77,0,0,1,5.438-.286h0a.478.478,0,0,1,.016.072.343.343,0,0,1,.015.073,8.919,8.919,0,0,1,.015,2.705.579.579,0,0,1-.568.515c-.6.007-1.284.1-1.951.08a1.478,1.478,0,0,1-.19-.008,2.332,2.332,0,0,1-.4-.042,1.64,1.64,0,0,1-.2-.034.813.813,0,0,1-.084-.019,2.106,2.106,0,0,1-.221-.061,2.422,2.422,0,0,1-.434-.183c-.054-.031-.107-.061-.16-.1s-.088-.058-.13-.092a2.757,2.757,0,0,1-1.154-2.625Z" fill="none"/>
        <path id="Trazado_161" data-name="Trazado 161" d="M226.732,4435.794a2.7,2.7,0,0,1-2.321,2.054,20.809,20.809,0,0,1-2.877.061,15.167,15.167,0,0,1-1.845-1.433,2.694,2.694,0,0,1,1.151-4.588,4.726,4.726,0,0,1,4.844.983,2.759,2.759,0,0,1,1.048,2.919Z" fill="#73a2ad"/>
        <path id="Trazado_162" data-name="Trazado 162" d="M222.616,4389.676h0" fill="none"/>
        <g id="Grupo_58" data-name="Grupo 58">
          <path id="Trazado_163" data-name="Trazado 163" d="M239.814,4398.651a.2.2,0,0,1-.209.19,3.629,3.629,0,0,0-.37.015,4.162,4.162,0,0,0-3.171,1.795.2.2,0,0,1-.122.088.2.2,0,0,1-.221-.3,4.481,4.481,0,0,1,3.335-1.97,4.571,4.571,0,0,1,.564-.027.21.21,0,0,1,.194.214Z" fill="#73a2ad"/>
          <path id="Trazado_164" data-name="Trazado 164" d="M240.069,4397.484a.188.188,0,0,1-.129.1.2.2,0,0,1-.141-.015,5.831,5.831,0,0,0-1.448-.434,11.671,11.671,0,0,0-4.451.091.2.2,0,0,1-.236-.156.205.205,0,0,1,.16-.24,12.44,12.44,0,0,1,4.249-.16,6.428,6.428,0,0,1,1.913.541A.2.2,0,0,1,240.069,4397.484Z" fill="#73a2ad"/>
        </g>
      </g>
      <g id="Grupo_60" data-name="Grupo 60">
        <path id="Trazado_165" data-name="Trazado 165" d="M238.652,4392.294a.58.58,0,0,1-.568.515c-.6.007-1.284.1-1.951.08a1.44,1.44,0,0,1-.191-.008,1.174,1.174,0,0,1-.209-.023c-.057,0-.111-.011-.168-.019h-.019a1.607,1.607,0,0,1-.2-.034.757.757,0,0,1-.084-.019,2.04,2.04,0,0,1-.221-.061,2.392,2.392,0,0,1-.434-.183c-.054-.031-.107-.061-.16-.1s-.088-.058-.13-.092a2.768,2.768,0,1,1,4.283-2.911c.008.023.012.049.019.072a.286.286,0,0,1,.016.073,8.919,8.919,0,0,1,.015,2.705Z" fill="#73a2ad"/>
        <path id="Trazado_166" data-name="Trazado 166" d="M238.621,4389.516c-.007-.023-.011-.049-.019-.072h0a.478.478,0,0,1,.016.072Z" fill="#2f7da2"/>
      </g>
    </g>
  </g>
</svg>
